<svg width="2000px" height="1033px"
 viewBox="0.00 0.00 1006.67 520.49" xmlns="http://www.w3.org/2000/svg" xmlns:xlink="http://www.w3.org/1999/xlink">
<g id="graph0" class="graph" transform="scale(1.0 1.0) rotate(0) translate(4 516.49)">
<title>ContextMapGraph</title>
<polygon fill="white" stroke="transparent" points="-4,4 -4,-516.49 1002.67,-516.49 1002.67,4 -4,4"/>
<!-- CatalogProductosContext -->
<g id="node1" class="node">
<title>CatalogProductosContext</title>
<polygon fill="none" stroke="black" stroke-width="2" points="175.72,-424.64 187.15,-424.33 198.54,-424.15 209.87,-424.08 221.08,-424.14 232.13,-424.33 242.97,-424.64 253.57,-425.07 263.89,-425.63 273.88,-426.31 283.51,-427.12 292.75,-428.04 301.57,-429.08 309.95,-430.23 317.85,-431.5 325.25,-432.87 332.15,-434.34 338.51,-435.92 344.33,-437.59 349.6,-439.35 354.32,-441.2 358.47,-443.13 362.06,-445.13 365.09,-447.2 367.56,-449.33 369.49,-451.51 370.88,-453.74 371.73,-456.02 372.07,-458.33 371.91,-460.66 371.27,-463.02 370.16,-465.39 368.59,-467.77 366.6,-470.14 364.2,-472.5 361.41,-474.85 358.25,-477.18 354.74,-479.48 350.9,-481.74 346.75,-483.96 342.32,-486.12 337.61,-488.23 332.64,-490.28 327.44,-492.27 322.02,-494.17 316.4,-496.01 310.58,-497.75 304.58,-499.41 298.42,-500.98 292.09,-502.45 285.62,-503.82 279.01,-505.08 272.27,-506.24 265.4,-507.3 258.41,-508.24 251.31,-509.06 244.1,-509.78 236.79,-510.37 229.38,-510.85 221.87,-511.22 214.28,-511.46 206.6,-511.59 198.84,-511.6 191.01,-511.49 183.12,-511.27 175.17,-510.94 167.17,-510.49 159.13,-509.93 151.07,-509.26 142.99,-508.49 134.91,-507.61 126.85,-506.63 118.83,-505.56 110.85,-504.38 102.95,-503.12 95.15,-501.77 87.46,-500.33 79.91,-498.81 72.53,-497.21 65.35,-495.54 58.38,-493.81 51.67,-492 45.24,-490.14 39.11,-488.22 33.32,-486.25 27.9,-484.24 22.87,-482.18 18.27,-480.09 14.12,-477.96 10.46,-475.81 7.29,-473.64 4.66,-471.45 2.58,-469.25 1.08,-467.04 0.16,-464.84 -0.14,-462.64 0.17,-460.45 1.12,-458.28 2.71,-456.12 4.95,-454 7.83,-451.91 11.35,-449.85 15.52,-447.84 20.32,-445.88 25.74,-443.97 31.77,-442.12 38.38,-440.34 45.56,-438.62 53.28,-436.98 61.52,-435.42 70.24,-433.94 79.42,-432.55 89,-431.25 98.97,-430.05 109.27,-428.95 119.87,-427.95 130.72,-427.06 141.77,-426.28 152.99,-425.62 164.32,-425.07 175.72,-424.64"/>
<text text-anchor="middle" x="192.14" y="-464.39" font-family="sans-serif" font-size="16.00">CatalogProductosContext</text>
</g>
<!-- GestionOrdenesContext -->
<g id="node2" class="node">
<title>GestionOrdenesContext</title>
<polygon fill="none" stroke="black" stroke-width="2" points="230.92,-372.63 220.29,-373.33 209.61,-373.92 198.94,-374.37 188.31,-374.7 177.77,-374.9 167.35,-374.97 157.1,-374.91 147.05,-374.71 137.24,-374.38 127.71,-373.92 118.48,-373.32 109.59,-372.59 101.05,-371.73 92.91,-370.75 85.18,-369.64 77.87,-368.41 71.01,-367.06 64.62,-365.6 58.69,-364.02 53.25,-362.35 48.3,-360.57 43.83,-358.7 39.86,-356.75 36.39,-354.71 33.4,-352.6 30.9,-350.42 28.87,-348.19 27.32,-345.9 26.22,-343.56 25.57,-341.19 25.36,-338.79 25.56,-336.37 26.18,-333.94 27.19,-331.5 28.57,-329.06 30.31,-326.63 32.4,-324.22 34.83,-321.83 37.56,-319.48 40.6,-317.16 43.92,-314.89 47.52,-312.68 51.38,-310.52 55.48,-308.43 59.82,-306.41 64.39,-304.47 69.17,-302.61 74.17,-300.83 79.36,-299.14 84.74,-297.55 90.32,-296.06 96.07,-294.67 102,-293.38 108.1,-292.2 114.37,-291.13 120.81,-290.17 127.4,-289.32 134.15,-288.58 141.05,-287.96 148.1,-287.45 155.29,-287.06 162.62,-286.77 170.08,-286.61 177.66,-286.55 185.35,-286.61 193.15,-286.78 201.05,-287.05 209.03,-287.44 217.08,-287.93 225.18,-288.52 233.32,-289.22 241.49,-290.01 249.65,-290.9 257.79,-291.89 265.9,-292.96 273.93,-294.13 281.88,-295.38 289.71,-296.71 297.39,-298.13 304.9,-299.62 312.21,-301.18 319.29,-302.81 326.11,-304.51 332.63,-306.27 338.83,-308.09 344.68,-309.96 350.15,-311.89 355.2,-313.86 359.82,-315.88 363.97,-317.93 367.63,-320.02 370.77,-322.14 373.37,-324.29 375.41,-326.45 376.87,-328.64 377.74,-330.83 378.01,-333.03 377.66,-335.23 376.68,-337.42 375.07,-339.61 372.84,-341.78 369.97,-343.93 366.48,-346.05 362.38,-348.14 357.67,-350.19 352.37,-352.2 346.5,-354.16 340.08,-356.07 333.12,-357.91 325.67,-359.69 317.74,-361.4 309.37,-363.02 300.59,-364.57 291.44,-366.02 281.96,-367.39 272.18,-368.65 262.14,-369.81 251.89,-370.86 241.47,-371.8 230.92,-372.63"/>
<text text-anchor="middle" x="192.14" y="-326" font-family="sans-serif" font-size="16.00">GestionOrdenesContext</text>
</g>
<!-- CatalogProductosContext&#45;&gt;GestionOrdenesContext -->
<g id="edge1" class="edge">
<title>CatalogProductosContext&#45;&gt;GestionOrdenesContext</title>
<path fill="none" stroke="black" stroke-width="2" d="M192.14,-424.04C192.14,-408.27 192.14,-390.43 192.14,-374.61"/>
<text text-anchor="middle" x="267.64" y="-396.29" font-family="sans-serif" font-size="12.00"> &#160;&#160;&#160;&#160;&#160;&#160;&#160;&#160;&#160;&#160;&#160;&#160;&#160;&#160;&#160;&#160;&#160;&#160;&#160;&#160;&#160;&#160;&#160;&#160;&#160;&#160;&#160;&#160;&#160;&#160;&#160;&#160;&#160;&#160;&#160;&#160;&#160;&#160;&#160;</text>
<polygon fill="white" stroke="transparent" points="185.14,-365.61 185.14,-382.61 199.14,-382.61 199.14,-365.61 185.14,-365.61"/>
<text text-anchor="start" x="187.14" y="-371.01" font-family="sans-serif" font-size="12.00">D</text>
<polygon fill="white" stroke="transparent" points="168.14,-414.04 168.14,-433.04 184.14,-433.04 184.14,-414.04 168.14,-414.04"/>
<polyline fill="none" stroke="black" points="184.14,-414.04 184.14,-433.04 "/>
<text text-anchor="start" x="171.14" y="-420.44" font-family="sans-serif" font-size="12.00">U</text>
<polygon fill="white" stroke="transparent" points="184.14,-414.04 184.14,-433.04 217.14,-433.04 217.14,-414.04 184.14,-414.04"/>
<polygon fill="none" stroke="black" points="184.14,-414.04 184.14,-433.04 217.14,-433.04 217.14,-414.04 184.14,-414.04"/>
<text text-anchor="start" x="187.14" y="-420.44" font-family="sans-serif" font-size="12.00">OHS</text>
</g>
<!-- GestionClientesContext -->
<g id="node3" class="node">
<title>GestionClientesContext</title>
<polygon fill="none" stroke="black" stroke-width="2" points="661.8,-233.8 651.21,-234.4 640.59,-234.88 629.99,-235.24 619.46,-235.47 609.02,-235.57 598.72,-235.55 588.61,-235.39 578.71,-235.1 569.07,-234.69 559.71,-234.14 550.68,-233.46 541.99,-232.65 533.68,-231.72 525.77,-230.67 518.28,-229.5 511.23,-228.21 504.63,-226.8 498.51,-225.29 492.86,-223.67 487.71,-221.95 483.05,-220.14 478.89,-218.25 475.23,-216.27 472.06,-214.21 469.39,-212.08 467.2,-209.9 465.5,-207.65 464.26,-205.36 463.49,-203.03 463.16,-200.67 463.26,-198.28 463.79,-195.87 464.71,-193.46 466.03,-191.04 467.71,-188.63 469.76,-186.23 472.14,-183.85 474.84,-181.5 477.86,-179.18 481.16,-176.91 484.74,-174.68 488.58,-172.51 492.67,-170.4 497,-168.36 501.55,-166.39 506.32,-164.5 511.29,-162.7 516.45,-160.97 521.8,-159.35 527.33,-157.81 533.03,-156.38 538.89,-155.05 544.92,-153.82 551.1,-152.7 557.43,-151.7 563.91,-150.8 570.54,-150.01 577.3,-149.34 584.19,-148.79 591.22,-148.34 598.37,-148.02 605.65,-147.8 613.03,-147.71 620.53,-147.72 628.12,-147.85 635.8,-148.08 643.56,-148.43 651.39,-148.89 659.27,-149.45 667.2,-150.11 675.15,-150.88 683.1,-151.74 691.05,-152.7 698.96,-153.75 706.82,-154.9 714.6,-156.13 722.28,-157.45 729.84,-158.84 737.24,-160.32 744.46,-161.87 751.47,-163.49 758.25,-165.18 764.75,-166.93 770.97,-168.74 776.85,-170.6 782.38,-172.52 787.53,-174.49 792.26,-176.49 796.55,-178.54 800.38,-180.62 803.72,-182.73 806.54,-184.87 808.82,-187.03 810.56,-189.2 811.71,-191.38 812.29,-193.57 812.26,-195.76 811.62,-197.94 810.37,-200.12 808.49,-202.27 806,-204.41 802.89,-206.52 799.16,-208.6 794.84,-210.64 789.92,-212.64 784.42,-214.59 778.36,-216.49 771.77,-218.32 764.66,-220.09 757.07,-221.79 749.01,-223.42 740.54,-224.96 731.66,-226.41 722.44,-227.78 712.89,-229.05 703.07,-230.21 693,-231.28 682.74,-232.23 672.33,-233.07 661.8,-233.8"/>
<text text-anchor="middle" x="629.14" y="-187.06" font-family="sans-serif" font-size="16.00">GestionClientesContext</text>
</g>
<!-- GestionOrdenesContext&#45;&gt;GestionClientesContext -->
<g id="edge2" class="edge">
<title>GestionOrdenesContext&#45;&gt;GestionClientesContext</title>
<path fill="none" stroke="black" stroke-width="2" d="M292.95,-297.21C358.36,-276.71 443.83,-249.93 512.22,-228.5"/>
<text text-anchor="middle" x="457.64" y="-257.12" font-family="sans-serif" font-size="12.00">Partnership</text>
</g>
<!-- GestionPagosContext -->
<g id="node5" class="node">
<title>GestionPagosContext</title>
<polygon fill="none" stroke="black" stroke-width="2" points="241.05,-149.26 250.57,-150.14 259.89,-151.12 268.98,-152.21 277.8,-153.41 286.32,-154.7 294.5,-156.09 302.3,-157.56 309.7,-159.12 316.67,-160.76 323.19,-162.47 329.22,-164.26 334.75,-166.11 339.77,-168.01 344.25,-169.97 348.18,-171.99 351.56,-174.04 354.37,-176.13 356.62,-178.25 358.31,-180.4 359.42,-182.58 359.98,-184.77 359.99,-186.96 359.46,-189.17 358.39,-191.37 356.82,-193.57 354.74,-195.76 352.18,-197.93 349.17,-200.08 345.72,-202.21 341.85,-204.3 337.6,-206.36 332.98,-208.38 328.02,-210.36 322.74,-212.28 317.18,-214.15 311.36,-215.97 305.3,-217.72 299.04,-219.4 292.59,-221.01 285.98,-222.55 279.23,-224.01 272.37,-225.38 265.42,-226.67 258.39,-227.87 251.32,-228.98 244.21,-229.99 237.08,-230.9 229.96,-231.71 222.84,-232.42 215.75,-233.02 208.69,-233.51 201.68,-233.89 194.73,-234.15 187.84,-234.31 181.02,-234.34 174.27,-234.27 167.61,-234.07 161.04,-233.76 154.56,-233.33 148.17,-232.78 141.89,-232.12 135.71,-231.34 129.64,-230.45 123.68,-229.45 117.83,-228.33 112.11,-227.11 106.52,-225.78 101.06,-224.35 95.74,-222.82 90.57,-221.19 85.56,-219.48 80.72,-217.68 76.05,-215.79 71.57,-213.83 67.29,-211.8 63.23,-209.7 59.39,-207.54 55.8,-205.32 52.46,-203.06 49.4,-200.76 46.63,-198.43 44.16,-196.07 42.02,-193.69 40.22,-191.29 38.78,-188.89 37.72,-186.5 37.04,-184.11 36.76,-181.74 36.91,-179.4 37.49,-177.08 38.51,-174.81 39.99,-172.58 41.93,-170.41 44.34,-168.29 47.23,-166.24 50.59,-164.27 54.44,-162.37 58.76,-160.56 63.56,-158.84 68.83,-157.21 74.55,-155.69 80.72,-154.27 87.33,-152.95 94.35,-151.75 101.77,-150.67 109.57,-149.71 117.72,-148.86 126.19,-148.14 134.96,-147.54 144,-147.07 153.26,-146.73 162.73,-146.51 172.36,-146.42 182.11,-146.46 191.95,-146.62 201.84,-146.91 211.73,-147.32 221.59,-147.85 231.38,-148.5 241.05,-149.26"/>
<text text-anchor="middle" x="192.14" y="-187.06" font-family="sans-serif" font-size="16.00">GestionPagosContext</text>
</g>
<!-- GestionOrdenesContext&#45;&gt;GestionPagosContext -->
<g id="edge3" class="edge">
<title>GestionOrdenesContext&#45;&gt;GestionPagosContext</title>
<path fill="none" stroke="black" stroke-width="2" d="M192.14,-286.6C192.14,-270.09 192.14,-251.19 192.14,-234.63"/>
<text text-anchor="middle" x="226.64" y="-257.12" font-family="sans-serif" font-size="12.00">Partnership</text>
</g>
<!-- GestionEnviosContext -->
<g id="node4" class="node">
<title>GestionEnviosContext</title>
<polygon fill="none" stroke="black" stroke-width="2" points="519.17,-17.09 526.41,-15.05 533.91,-13.11 541.64,-11.28 549.57,-9.57 557.67,-7.98 565.91,-6.51 574.26,-5.19 582.69,-4 591.18,-2.96 599.69,-2.07 608.2,-1.34 616.69,-0.76 625.12,-0.35 633.47,-0.09 641.73,-0 649.86,-0.07 657.85,-0.3 665.68,-0.69 673.33,-1.24 680.79,-1.94 688.04,-2.79 695.06,-3.78 701.85,-4.92 708.39,-6.2 714.67,-7.6 720.69,-9.12 726.43,-10.76 731.89,-12.51 737.07,-14.36 741.96,-16.3 746.55,-18.33 750.84,-20.43 754.83,-22.59 758.51,-24.82 761.89,-27.09 764.96,-29.4 767.72,-31.75 770.16,-34.12 772.3,-36.5 774.12,-38.89 775.63,-41.28 776.81,-43.66 777.69,-46.02 778.24,-48.36 778.47,-50.68 778.38,-52.95 777.96,-55.19 777.22,-57.38 776.15,-59.53 774.76,-61.61 773.03,-63.64 770.97,-65.61 768.57,-67.51 765.84,-69.34 762.78,-71.1 759.38,-72.79 755.65,-74.41 751.59,-75.95 747.19,-77.41 742.47,-78.8 737.42,-80.1 732.05,-81.33 726.37,-82.48 720.38,-83.55 714.09,-84.54 707.52,-85.45 700.67,-86.27 693.55,-87.02 686.19,-87.69 678.58,-88.27 670.77,-88.77 662.75,-89.19 654.55,-89.53 646.2,-89.79 637.71,-89.96 629.11,-90.04 620.43,-90.04 611.68,-89.96 602.91,-89.78 594.14,-89.52 585.39,-89.17 576.7,-88.73 568.1,-88.19 559.62,-87.57 551.29,-86.85 543.14,-86.03 535.2,-85.12 527.51,-84.11 520.09,-83.01 512.97,-81.81 506.19,-80.52 499.77,-79.13 493.73,-77.64 488.11,-76.06 482.91,-74.4 478.18,-72.64 473.92,-70.79 470.15,-68.86 466.9,-66.85 464.17,-64.77 461.97,-62.61 460.31,-60.38 459.21,-58.1 458.66,-55.75 458.66,-53.36 459.22,-50.93 460.32,-48.46 461.98,-45.97 464.17,-43.45 466.88,-40.93 470.11,-38.4 473.84,-35.88 478.04,-33.37 482.71,-30.89 487.83,-28.45 493.36,-26.05 499.28,-23.71 505.58,-21.42 512.21,-19.21 519.17,-17.09"/>
<text text-anchor="middle" x="629.14" y="-44.7" font-family="sans-serif" font-size="16.00">GestionEnviosContext</text>
</g>
<!-- GestionClientesContext&#45;&gt;GestionEnviosContext -->
<g id="edge4" class="edge">
<title>GestionClientesContext&#45;&gt;GestionEnviosContext</title>
<path fill="none" stroke="black" stroke-width="2" d="M629.14,-147.75C629.14,-129.5 629.14,-108.22 629.14,-90.14"/>
<text text-anchor="middle" x="663.64" y="-118.4" font-family="sans-serif" font-size="12.00">Partnership</text>
</g>
<!-- GestionAutorizacionAuntenticacionContext -->
<g id="node6" class="node">
<title>GestionAutorizacionAuntenticacionContext</title>
<polygon fill="none" stroke="black" stroke-width="2" points="627.09,-372.46 609.51,-371.77 592.23,-370.97 575.32,-370.06 558.86,-369.04 542.9,-367.92 527.52,-366.7 512.77,-365.37 498.71,-363.96 485.39,-362.46 472.87,-360.87 461.18,-359.21 450.37,-357.47 440.48,-355.66 431.52,-353.78 423.53,-351.85 416.52,-349.86 410.51,-347.82 405.52,-345.73 401.53,-343.61 398.55,-341.46 396.58,-339.28 395.6,-337.08 395.59,-334.86 396.54,-332.63 398.42,-330.39 401.21,-328.16 404.87,-325.93 409.37,-323.72 414.67,-321.52 420.73,-319.34 427.51,-317.19 434.97,-315.07 443.06,-313 451.74,-310.96 460.97,-308.98 470.69,-307.04 480.86,-305.17 491.44,-303.36 502.39,-301.61 513.65,-299.94 525.2,-298.34 536.99,-296.83 548.98,-295.39 561.14,-294.05 573.44,-292.8 585.84,-291.64 598.31,-290.59 610.83,-289.63 623.38,-288.78 635.93,-288.04 648.46,-287.41 660.96,-286.89 673.41,-286.48 685.79,-286.19 698.1,-286.01 710.31,-285.95 722.43,-286.02 734.45,-286.2 746.34,-286.5 758.12,-286.92 769.77,-287.45 781.28,-288.11 792.64,-288.88 803.85,-289.77 814.9,-290.76 825.77,-291.87 836.46,-293.09 846.95,-294.42 857.23,-295.84 867.29,-297.37 877.1,-298.98 886.65,-300.69 895.91,-302.49 904.87,-304.36 913.5,-306.31 921.76,-308.34 929.65,-310.42 937.11,-312.57 944.13,-314.76 950.68,-317.01 956.71,-319.29 962.2,-321.61 967.12,-323.95 971.42,-326.31 975.08,-328.69 978.07,-331.07 980.34,-333.44 981.88,-335.81 982.65,-338.16 982.62,-340.49 981.78,-342.79 980.09,-345.05 977.54,-347.27 974.11,-349.44 969.8,-351.55 964.59,-353.59 958.48,-355.57 951.46,-357.47 943.55,-359.29 934.75,-361.03 925.08,-362.67 914.55,-364.22 903.19,-365.67 891.03,-367.01 878.1,-368.25 864.44,-369.37 850.09,-370.38 835.1,-371.27 819.52,-372.05 803.4,-372.7 786.81,-373.23 769.8,-373.64 752.45,-373.92 734.81,-374.08 716.96,-374.12 698.97,-374.03 680.92,-373.82 662.87,-373.48 644.9,-373.03 627.09,-372.46"/>
<text text-anchor="middle" x="697.14" y="-326" font-family="sans-serif" font-size="16.00">GestionAutorizacionAuntenticacionContext</text>
</g>
<!-- GestionAutorizacionAuntenticacionContext&#45;&gt;GestionClientesContext -->
<g id="edge5" class="edge">
<title>GestionAutorizacionAuntenticacionContext&#45;&gt;GestionClientesContext</title>
<path fill="none" stroke="black" stroke-width="2" d="M676,-286.22C667.89,-269.89 658.64,-251.25 650.51,-234.88"/>
<text text-anchor="middle" x="740.64" y="-257.12" font-family="sans-serif" font-size="12.00"> &#160;&#160;&#160;&#160;&#160;&#160;&#160;&#160;&#160;&#160;&#160;&#160;&#160;&#160;&#160;&#160;&#160;&#160;&#160;&#160;&#160;&#160;&#160;&#160;&#160;&#160;&#160;&#160;&#160;&#160;&#160;&#160;&#160;&#160;&#160;&#160;&#160;&#160;&#160;</text>
<polygon fill="white" stroke="transparent" points="631.51,-224.88 631.51,-243.88 647.51,-243.88 647.51,-224.88 631.51,-224.88"/>
<polyline fill="none" stroke="black" points="647.51,-224.88 647.51,-243.88 "/>
<text text-anchor="start" x="634.51" y="-231.28" font-family="sans-serif" font-size="12.00">D</text>
<polygon fill="white" stroke="transparent" points="647.51,-224.88 647.51,-243.88 669.51,-243.88 669.51,-224.88 647.51,-224.88"/>
<polygon fill="none" stroke="black" points="647.51,-224.88 647.51,-243.88 669.51,-243.88 669.51,-224.88 647.51,-224.88"/>
<text text-anchor="start" x="650.51" y="-231.28" font-family="sans-serif" font-size="12.00">CF</text>
<polygon fill="white" stroke="transparent" points="658,-276.22 658,-295.22 674,-295.22 674,-276.22 658,-276.22"/>
<polyline fill="none" stroke="black" points="674,-276.22 674,-295.22 "/>
<text text-anchor="start" x="661" y="-282.62" font-family="sans-serif" font-size="12.00">U</text>
<polygon fill="white" stroke="transparent" points="674,-276.22 674,-295.22 695,-295.22 695,-276.22 674,-276.22"/>
<polygon fill="none" stroke="black" points="674,-276.22 674,-295.22 695,-295.22 695,-276.22 674,-276.22"/>
<text text-anchor="start" x="677" y="-282.62" font-family="sans-serif" font-size="12.00">PL</text>
</g>
</g>
</svg>
